<svg xmlns="http://www.w3.org/2000/svg" viewBox="0 0 1400 900" width="1400" height="900">
  <defs>
    <style>
      .ui-label { font-family: -apple-system,'SF Pro Display','Helvetica Neue',Arial,sans-serif; font-size: 9px; letter-spacing: 0.14em; fill: rgba(245,240,232,0.32); }
      .ui-body  { font-family: -apple-system,'SF Pro Text','Helvetica Neue',Arial,sans-serif; font-weight: 400; fill: #F5F0E8; }
      .ui-bold  { font-family: -apple-system,'SF Pro Display','Helvetica Neue',Arial,sans-serif; font-weight: 700; fill: #F5F0E8; }
      .ui-mono  { font-family: 'SF Mono','Fira Code','Courier New',monospace; }
    </style>
    <linearGradient id="bg3" x1="0" y1="0" x2="1400" y2="900" gradientUnits="userSpaceOnUse">
      <stop offset="0%" stop-color="#06060E"/>
      <stop offset="100%" stop-color="#0E0C1C"/>
    </linearGradient>
    <linearGradient id="purpGrad" x1="0" y1="0" x2="1" y2="1">
      <stop offset="0%" stop-color="#6C47FF"/>
      <stop offset="100%" stop-color="#A855FF"/>
    </linearGradient>
    <linearGradient id="cardTop" x1="0" y1="0" x2="0" y2="1">
      <stop offset="0%" stop-color="#7C55FF"/>
      <stop offset="100%" stop-color="#4D2FCC"/>
    </linearGradient>
    <linearGradient id="chartFill" x1="0" y1="0" x2="0" y2="1">
      <stop offset="0%" stop-color="#6C47FF" stop-opacity="0.5"/>
      <stop offset="100%" stop-color="#6C47FF" stop-opacity="0"/>
    </linearGradient>
    <radialGradient id="glowBehind" cx="50%" cy="50%" r="50%">
      <stop offset="0%" stop-color="#6C47FF" stop-opacity="0.2"/>
      <stop offset="100%" stop-color="#6C47FF" stop-opacity="0"/>
    </radialGradient>
    <filter id="phoneShadow">
      <feDropShadow dx="0" dy="30" stdDeviation="50" flood-color="#6C47FF" flood-opacity="0.22"/>
      <feDropShadow dx="0" dy="8" stdDeviation="16" flood-color="#000" flood-opacity="0.6"/>
    </filter>
    <filter id="glowFx">
      <feGaussianBlur stdDeviation="8" result="b"/>
      <feMerge><feMergeNode in="b"/><feMergeNode in="SourceGraphic"/></feMerge>
    </filter>
    <clipPath id="screenMask">
      <rect x="488" y="65" width="308" height="664" rx="44"/>
    </clipPath>
    <clipPath id="screenInner">
      <rect x="494" y="71" width="296" height="652" rx="40"/>
    </clipPath>
  </defs>

  <rect width="1400" height="900" fill="url(#bg3)"/>

  <!-- Subtle dot grid -->
  <pattern id="dotGrid" x="0" y="0" width="40" height="40" patternUnits="userSpaceOnUse">
    <circle cx="20" cy="20" r="0.8" fill="#F5F0E8" opacity="0.04"/>
  </pattern>
  <rect width="1400" height="900" fill="url(#dotGrid)"/>

  <!-- Glow behind phone -->
  <ellipse cx="642" cy="450" rx="280" ry="320" fill="url(#glowBehind)"/>

  <!-- ═══ PHONE FRAME ═══ -->
  <!-- Outer frame - shadow layer -->
  <rect x="486" y="63" width="312" height="668" rx="46" fill="#000" opacity="0.8" filter="url(#phoneShadow)"/>
  <!-- Phone body -->
  <rect x="488" y="65" width="308" height="664" rx="44" fill="#151520"/>
  <!-- Screen bezel area -->
  <rect x="494" y="71" width="296" height="652" rx="40" fill="#0A0914"/>

  <!-- ═══ SCREEN CONTENT ═══ -->
  <g clip-path="url(#screenInner)">
    <rect x="494" y="71" width="296" height="652" fill="#07070F"/>

    <!-- Status bar -->
    <text x="510" y="100" class="ui-bold" font-size="12">9:41</text>
    <!-- Battery -->
    <rect x="757" y="91" width="26" height="13" rx="3.5" fill="none" stroke="rgba(245,240,232,0.4)" stroke-width="1.2"/>
    <rect x="783" y="96" width="3" height="4" rx="1" fill="rgba(245,240,232,0.4)"/>
    <rect x="759" y="93" width="20" height="9" rx="2" fill="rgba(245,240,232,0.7)"/>
    <!-- Signal bars -->
    <rect x="734" y="97" width="3" height="7" rx="1" fill="rgba(245,240,232,0.7)"/>
    <rect x="739" y="94" width="3" height="10" rx="1" fill="rgba(245,240,232,0.7)"/>
    <rect x="744" y="91" width="3" height="13" rx="1" fill="rgba(245,240,232,0.7)"/>
    <rect x="749" y="89" width="3" height="15" rx="1" fill="rgba(245,240,232,0.3)"/>

    <!-- Header nav -->
    <text x="510" y="135" class="ui-label" font-size="11" fill="rgba(245,240,232,0.5)">Good morning 👋</text>
    <text x="510" y="157" class="ui-bold" font-size="18">Isaac</text>
    <!-- Avatar -->
    <circle cx="766" cy="144" r="18" fill="#14112A"/>
    <circle cx="766" cy="144" r="18" fill="none" stroke="#6C47FF" stroke-width="1.5" opacity="0.6"/>
    <text x="766" y="149" font-family="-apple-system,sans-serif" font-size="12" font-weight="700" fill="#9B75FF" text-anchor="middle">IF</text>

    <!-- Balance card -->
    <rect x="502" y="172" width="280" height="130" rx="20" fill="url(#cardTop)"/>
    <!-- Card gloss -->
    <rect x="502" y="172" width="280" height="65" rx="20" fill="white" opacity="0.05"/>
    <!-- Card noise texture suggestion -->
    <rect x="502" y="172" width="280" height="130" rx="20" fill="none" stroke="rgba(255,255,255,0.12)" stroke-width="1"/>

    <text x="520" y="200" class="ui-label" fill="rgba(255,255,255,0.65)">TOTAL PORTFOLIO</text>
    <text x="520" y="238" font-family="-apple-system,'SF Pro Display',sans-serif" font-weight="800" font-size="36" fill="#fff" letter-spacing="-1">$45,230</text>
    <text x="672" y="238" font-family="'SF Mono','Courier New',monospace" font-size="18" fill="rgba(255,255,255,0.45)">.84</text>

    <!-- Change badge -->
    <rect x="520" y="250" width="72" height="20" rx="10" fill="rgba(0,208,132,0.2)"/>
    <text x="556" y="264" font-family="-apple-system,sans-serif" font-size="10" font-weight="600" fill="#00D084" text-anchor="middle">▲ 4.2%</text>
    <text x="601" y="264" font-family="-apple-system,sans-serif" font-size="10" fill="rgba(255,255,255,0.4)">today</text>

    <!-- Mini sparkline on card -->
    <polyline points="640,283 654,271 668,276 682,260 696,266 710,250 724,257 738,243 752,249 766,235 780,241" fill="none" stroke="rgba(255,255,255,0.35)" stroke-width="1.5" stroke-linecap="round" stroke-linejoin="round"/>

    <!-- Quick actions -->
    <text x="510" y="328" class="ui-label">QUICK ACTIONS</text>
    <g>
      <rect x="502" y="338" width="60" height="58" rx="16" fill="#14112A"/>
      <text x="532" y="367" font-family="-apple-system,sans-serif" font-size="20" fill="#6C47FF" text-anchor="middle">↑</text>
      <text x="532" y="387" font-family="-apple-system,sans-serif" font-size="9" fill="rgba(245,240,232,0.4)" text-anchor="middle">Send</text>
    </g>
    <g>
      <rect x="570" y="338" width="60" height="58" rx="16" fill="#14112A"/>
      <text x="600" y="367" font-family="-apple-system,sans-serif" font-size="20" fill="#6C47FF" text-anchor="middle">↓</text>
      <text x="600" y="387" font-family="-apple-system,sans-serif" font-size="9" fill="rgba(245,240,232,0.4)" text-anchor="middle">Receive</text>
    </g>
    <g>
      <rect x="638" y="338" width="60" height="58" rx="16" fill="#14112A"/>
      <text x="668" y="367" font-family="-apple-system,sans-serif" font-size="18" fill="#6C47FF" text-anchor="middle">⇄</text>
      <text x="668" y="387" font-family="-apple-system,sans-serif" font-size="9" fill="rgba(245,240,232,0.4)" text-anchor="middle">Swap</text>
    </g>
    <g>
      <rect x="706" y="338" width="60" height="58" rx="16" fill="#14112A"/>
      <text x="736" y="367" font-family="-apple-system,sans-serif" font-size="20" fill="#6C47FF" text-anchor="middle">+</text>
      <text x="736" y="387" font-family="-apple-system,sans-serif" font-size="9" fill="rgba(245,240,232,0.4)" text-anchor="middle">Buy</text>
    </g>

    <!-- Assets section -->
    <text x="510" y="420" class="ui-label">MY ASSETS</text>
    <text x="775" y="420" font-family="-apple-system,sans-serif" font-size="10" fill="#6C47FF" text-anchor="end">See all</text>

    <!-- BTC row -->
    <circle cx="526" cy="450" r="16" fill="#F7931A"/>
    <text x="526" y="455" font-family="-apple-system,sans-serif" font-size="13" font-weight="700" fill="#fff" text-anchor="middle">₿</text>
    <text x="552" y="445" class="ui-bold" font-size="13">Bitcoin</text>
    <text x="552" y="461" class="ui-label" font-size="9">0.812 BTC</text>
    <text x="774" y="445" class="ui-bold" font-size="13" text-anchor="end">$23,410</text>
    <text x="774" y="461" font-family="-apple-system,sans-serif" font-size="10" fill="#00D084" text-anchor="end">▲ 2.3%</text>
    <line x1="502" y1="476" x2="782" y2="476" stroke="#F5F0E8" stroke-width="0.5" opacity="0.06"/>

    <!-- ETH row -->
    <circle cx="526" cy="502" r="16" fill="#627EEA"/>
    <text x="526" y="507" font-family="-apple-system,sans-serif" font-size="13" font-weight="700" fill="#fff" text-anchor="middle">Ξ</text>
    <text x="552" y="497" class="ui-bold" font-size="13">Ethereum</text>
    <text x="552" y="513" class="ui-label" font-size="9">4.5 ETH</text>
    <text x="774" y="497" class="ui-bold" font-size="13" text-anchor="end">$14,220</text>
    <text x="774" y="513" font-family="-apple-system,sans-serif" font-size="10" fill="#00D084" text-anchor="end">▲ 5.1%</text>
    <line x1="502" y1="528" x2="782" y2="528" stroke="#F5F0E8" stroke-width="0.5" opacity="0.06"/>

    <!-- SOL row -->
    <circle cx="526" cy="554" r="16" fill="#9945FF"/>
    <text x="526" y="559" font-family="-apple-system,sans-serif" font-size="11" font-weight="700" fill="#fff" text-anchor="middle">◎</text>
    <text x="552" y="549" class="ui-bold" font-size="13">Solana</text>
    <text x="552" y="565" class="ui-label" font-size="9">32.0 SOL</text>
    <text x="774" y="549" class="ui-bold" font-size="13" text-anchor="end">$5,440</text>
    <text x="774" y="565" font-family="-apple-system,sans-serif" font-size="10" fill="#FF5A5A" text-anchor="end">▼ 1.2%</text>
    <line x1="502" y1="580" x2="782" y2="580" stroke="#F5F0E8" stroke-width="0.5" opacity="0.06"/>

    <!-- ADA row -->
    <circle cx="526" cy="606" r="16" fill="#0D3B8E"/>
    <text x="526" y="611" font-family="-apple-system,sans-serif" font-size="11" font-weight="700" fill="#fff" text-anchor="middle">A</text>
    <text x="552" y="601" class="ui-bold" font-size="13">Cardano</text>
    <text x="552" y="617" class="ui-label" font-size="9">5,200 ADA</text>
    <text x="774" y="601" class="ui-bold" font-size="13" text-anchor="end">$2,160</text>
    <text x="774" y="617" font-family="-apple-system,sans-serif" font-size="10" fill="#00D084" text-anchor="end">▲ 0.8%</text>

    <!-- Bottom chart strip -->
    <rect x="494" y="636" width="296" height="88" fill="#07070F"/>
    <text x="510" y="657" class="ui-label">7-DAY PERFORMANCE</text>
    <rect x="502" y="664" width="280" height="48" rx="12" fill="#14112A"/>
    <polygon points="510,704 528,690 548,696 568,679 592,684 616,667 640,673 664,657 688,663 712,649 736,655 760,641 780,648 782,712 510,712" fill="url(#chartFill)" opacity="0.6"/>
    <polyline points="510,704 528,690 548,696 568,679 592,684 616,667 640,673 664,657 688,663 712,649 736,655 760,641 780,648" fill="none" stroke="#6C47FF" stroke-width="2" stroke-linecap="round" stroke-linejoin="round" filter="url(#glowFx)"/>
    <!-- Chart dot -->
    <circle cx="780" cy="648" r="4" fill="#6C47FF" filter="url(#glowFx)"/>
    <circle cx="780" cy="648" r="2" fill="#fff"/>

    <!-- Bottom nav -->
    <rect x="494" y="688" width="296" height="36" fill="#07070F"/>
    <line x1="494" y1="688" x2="790" y2="688" stroke="#F5F0E8" stroke-width="0.5" opacity="0.08"/>
    <!-- Nav icons -->
    <text x="532" y="711" font-family="-apple-system,sans-serif" font-size="17" fill="#6C47FF" text-anchor="middle">⌂</text>
    <circle cx="532" cy="720" r="2.5" fill="#6C47FF"/>
    <text x="600" y="711" font-family="-apple-system,sans-serif" font-size="15" fill="rgba(245,240,232,0.2)" text-anchor="middle">◫</text>
    <text x="668" y="711" font-family="-apple-system,sans-serif" font-size="15" fill="rgba(245,240,232,0.2)" text-anchor="middle">↕</text>
    <text x="736" y="711" font-family="-apple-system,sans-serif" font-size="15" fill="rgba(245,240,232,0.2)" text-anchor="middle">⊙</text>
  </g>

  <!-- Dynamic Island -->
  <rect x="597" y="76" width="90" height="26" rx="13" fill="#000"/>

  <!-- Phone side buttons -->
  <rect x="484" y="210" width="4" height="36" rx="2" fill="#1a1a28"/>
  <rect x="484" y="256" width="4" height="56" rx="2" fill="#1a1a28"/>
  <rect x="484" y="322" width="4" height="56" rx="2" fill="#1a1a28"/>
  <rect x="796" y="240" width="4" height="80" rx="2" fill="#1a1a28"/>

  <!-- ═══ LEFT CALLOUTS ═══ -->
  <!-- Balance callout -->
  <line x1="484" y1="222" x2="390" y2="222" stroke="#6C47FF" stroke-width="1" stroke-dasharray="4,3" opacity="0.5"/>
  <circle cx="388" cy="222" r="3" fill="#6C47FF" opacity="0.7"/>
  <text x="376" y="200" font-family="-apple-system,sans-serif" font-weight="700" font-size="11" fill="#F5F0E8" text-anchor="end">Balance Card</text>
  <text x="376" y="218" font-family="-apple-system,sans-serif" font-size="10" fill="rgba(245,240,232,0.4)" text-anchor="end">Glassmorphism +</text>
  <text x="376" y="232" font-family="-apple-system,sans-serif" font-size="10" fill="rgba(245,240,232,0.4)" text-anchor="end">gradient overlay</text>

  <!-- Quick actions callout -->
  <line x1="484" y1="368" x2="390" y2="368" stroke="#6C47FF" stroke-width="1" stroke-dasharray="4,3" opacity="0.5"/>
  <circle cx="388" cy="368" r="3" fill="#6C47FF" opacity="0.7"/>
  <text x="376" y="352" font-family="-apple-system,sans-serif" font-weight="700" font-size="11" fill="#F5F0E8" text-anchor="end">Quick Actions</text>
  <text x="376" y="370" font-family="-apple-system,sans-serif" font-size="10" fill="rgba(245,240,232,0.4)" text-anchor="end">Haptic-ready</text>
  <text x="376" y="384" font-family="-apple-system,sans-serif" font-size="10" fill="rgba(245,240,232,0.4)" text-anchor="end">icon buttons</text>

  <!-- Asset list callout -->
  <line x1="484" y1="520" x2="390" y2="520" stroke="#6C47FF" stroke-width="1" stroke-dasharray="4,3" opacity="0.5"/>
  <circle cx="388" cy="520" r="3" fill="#6C47FF" opacity="0.7"/>
  <text x="376" y="504" font-family="-apple-system,sans-serif" font-weight="700" font-size="11" fill="#F5F0E8" text-anchor="end">Asset List</text>
  <text x="376" y="522" font-family="-apple-system,sans-serif" font-size="10" fill="rgba(245,240,232,0.4)" text-anchor="end">Live price feed +</text>
  <text x="376" y="536" font-family="-apple-system,sans-serif" font-size="10" fill="rgba(245,240,232,0.4)" text-anchor="end">% change</text>

  <!-- Chart callout -->
  <line x1="484" y1="670" x2="390" y2="670" stroke="#6C47FF" stroke-width="1" stroke-dasharray="4,3" opacity="0.5"/>
  <circle cx="388" cy="670" r="3" fill="#6C47FF" opacity="0.7"/>
  <text x="376" y="654" font-family="-apple-system,sans-serif" font-weight="700" font-size="11" fill="#F5F0E8" text-anchor="end">Sparkline Chart</text>
  <text x="376" y="672" font-family="-apple-system,sans-serif" font-size="10" fill="rgba(245,240,232,0.4)" text-anchor="end">7-day animated</text>
  <text x="376" y="686" font-family="-apple-system,sans-serif" font-size="10" fill="rgba(245,240,232,0.4)" text-anchor="end">performance</text>

  <!-- ═══ RIGHT CALLOUTS ═══ -->
  <!-- Dynamic island -->
  <line x1="800" y1="90" x2="880" y2="90" stroke="#6C47FF" stroke-width="1" stroke-dasharray="4,3" opacity="0.5"/>
  <circle cx="882" cy="90" r="3" fill="#6C47FF" opacity="0.7"/>
  <text x="892" y="86" font-family="-apple-system,sans-serif" font-weight="700" font-size="11" fill="#F5F0E8">Dynamic Island</text>
  <text x="892" y="102" font-family="-apple-system,sans-serif" font-size="10" fill="rgba(245,240,232,0.4)">Live activity</text>

  <!-- Status bar -->
  <line x1="800" y1="158" x2="880" y2="158" stroke="#6C47FF" stroke-width="1" stroke-dasharray="4,3" opacity="0.5"/>
  <circle cx="882" cy="158" r="3" fill="#6C47FF" opacity="0.7"/>
  <text x="892" y="154" font-family="-apple-system,sans-serif" font-weight="700" font-size="11" fill="#F5F0E8">Status Bar</text>
  <text x="892" y="170" font-family="-apple-system,sans-serif" font-size="10" fill="rgba(245,240,232,0.4)">Battery + signal</text>

  <!-- Bottom nav -->
  <line x1="800" y1="710" x2="880" y2="710" stroke="#6C47FF" stroke-width="1" stroke-dasharray="4,3" opacity="0.5"/>
  <circle cx="882" cy="710" r="3" fill="#6C47FF" opacity="0.7"/>
  <text x="892" y="706" font-family="-apple-system,sans-serif" font-weight="700" font-size="11" fill="#F5F0E8">Tab Bar</text>
  <text x="892" y="722" font-family="-apple-system,sans-serif" font-size="10" fill="rgba(245,240,232,0.4)">4-tab navigation</text>

  <!-- ═══ RIGHT PANEL: Design Notes ═══ -->
  <line x1="980" y1="63" x2="980" y2="837" stroke="#F5F0E8" stroke-width="0.5" opacity="0.06"/>

  <text x="1010" y="100" font-family="-apple-system,sans-serif" font-size="9" fill="rgba(245,240,232,0.3)" letter-spacing="0.18em">DESIGN SPECIFICATIONS</text>
  <line x1="1010" y1="114" x2="1340" y2="114" stroke="#F5F0E8" stroke-width="0.5" opacity="0.06"/>

  <!-- Spacing -->
  <text x="1010" y="148" font-family="-apple-system,sans-serif" font-weight="600" font-size="12" fill="#F5F0E8" opacity="0.7">Spacing System</text>
  <text x="1010" y="168" font-family="-apple-system,sans-serif" font-size="11" fill="rgba(245,240,232,0.4)">Base unit: 4px</text>
  <g>
    <rect x="1010" y="176" width="4" height="16" fill="#6C47FF" opacity="0.4"/>
    <rect x="1018" y="176" width="8" height="16" fill="#6C47FF" opacity="0.5"/>
    <rect x="1030" y="176" width="12" height="16" fill="#6C47FF" opacity="0.6"/>
    <rect x="1046" y="176" width="16" height="16" fill="#6C47FF" opacity="0.7"/>
    <rect x="1066" y="176" width="24" height="16" fill="#6C47FF" opacity="0.8"/>
    <rect x="1094" y="176" width="32" height="16" fill="#6C47FF"/>
  </g>
  <text x="1010" y="210" font-family="'SF Mono','Courier New',monospace" font-size="9" fill="rgba(245,240,232,0.2)">4 · 8 · 12 · 16 · 24 · 32px</text>

  <line x1="1010" y1="228" x2="1340" y2="228" stroke="#F5F0E8" stroke-width="0.5" opacity="0.06"/>

  <!-- Border radius -->
  <text x="1010" y="256" font-family="-apple-system,sans-serif" font-weight="600" font-size="12" fill="#F5F0E8" opacity="0.7">Border Radius</text>
  <rect x="1010" y="268" width="52" height="52" rx="8" fill="#14112A" stroke="#6C47FF" stroke-width="1" opacity="1" stroke-opacity="0.4"/>
  <text x="1036" y="302" font-family="-apple-system,sans-serif" font-size="9" fill="rgba(245,240,232,0.4)" text-anchor="middle">8px</text>
  <rect x="1074" y="268" width="52" height="52" rx="14" fill="#14112A" stroke="#6C47FF" stroke-width="1" stroke-opacity="0.4"/>
  <text x="1100" y="302" font-family="-apple-system,sans-serif" font-size="9" fill="rgba(245,240,232,0.4)" text-anchor="middle">14px</text>
  <rect x="1138" y="268" width="52" height="52" rx="20" fill="#14112A" stroke="#6C47FF" stroke-width="1" stroke-opacity="0.4"/>
  <text x="1164" y="302" font-family="-apple-system,sans-serif" font-size="9" fill="rgba(245,240,232,0.4)" text-anchor="middle">20px</text>
  <rect x="1202" y="268" width="52" height="52" rx="40" fill="#14112A" stroke="#6C47FF" stroke-width="1" stroke-opacity="0.4"/>
  <text x="1228" y="302" font-family="-apple-system,sans-serif" font-size="9" fill="rgba(245,240,232,0.4)" text-anchor="middle">full</text>

  <line x1="1010" y1="338" x2="1340" y2="338" stroke="#F5F0E8" stroke-width="0.5" opacity="0.06"/>

  <!-- Type scale -->
  <text x="1010" y="364" font-family="-apple-system,sans-serif" font-weight="600" font-size="12" fill="#F5F0E8" opacity="0.7">Type Scale</text>
  <text x="1010" y="402" font-family="-apple-system,sans-serif" font-weight="800" font-size="36" fill="#F5F0E8" letter-spacing="-1">$45,230</text>
  <text x="1270" y="378" font-family="-apple-system,sans-serif" font-size="10" fill="rgba(245,240,232,0.3)" text-anchor="end">36px / 800</text>
  <text x="1010" y="426" font-family="-apple-system,sans-serif" font-weight="700" font-size="18" fill="#F5F0E8">Bitcoin</text>
  <text x="1270" y="418" font-family="-apple-system,sans-serif" font-size="10" fill="rgba(245,240,232,0.3)" text-anchor="end">18px / 700</text>
  <text x="1010" y="448" font-family="-apple-system,sans-serif" font-weight="400" font-size="13" fill="rgba(245,240,232,0.5)">0.812 BTC available</text>
  <text x="1270" y="448" font-family="-apple-system,sans-serif" font-size="10" fill="rgba(245,240,232,0.3)" text-anchor="end">13px / 400</text>
  <text x="1010" y="466" font-family="-apple-system,sans-serif" font-size="9" fill="rgba(245,240,232,0.28)" letter-spacing="0.18em">PORTFOLIO VALUE</text>
  <text x="1270" y="466" font-family="-apple-system,sans-serif" font-size="10" fill="rgba(245,240,232,0.3)" text-anchor="end">9px / label</text>

  <line x1="1010" y1="490" x2="1340" y2="490" stroke="#F5F0E8" stroke-width="0.5" opacity="0.06"/>

  <!-- Component states -->
  <text x="1010" y="518" font-family="-apple-system,sans-serif" font-weight="600" font-size="12" fill="#F5F0E8" opacity="0.7">Component States</text>

  <!-- Normal button -->
  <rect x="1010" y="532" width="96" height="36" rx="18" fill="url(#purpGrad)"/>
  <text x="1058" y="554" font-family="-apple-system,sans-serif" font-size="11" font-weight="600" fill="#fff" text-anchor="middle">Confirm</text>
  <text x="1058" y="580" font-family="-apple-system,sans-serif" font-size="9" fill="rgba(245,240,232,0.3)" text-anchor="middle">Default</text>

  <!-- Hover/pressed -->
  <rect x="1118" y="532" width="96" height="36" rx="18" fill="#6C47FF" opacity="0.5"/>
  <rect x="1118" y="532" width="96" height="36" rx="18" fill="none" stroke="#6C47FF" stroke-width="1"/>
  <text x="1166" y="554" font-family="-apple-system,sans-serif" font-size="11" font-weight="600" fill="rgba(255,255,255,0.6)" text-anchor="middle">Confirm</text>
  <text x="1166" y="580" font-family="-apple-system,sans-serif" font-size="9" fill="rgba(245,240,232,0.3)" text-anchor="middle">Pressed</text>

  <!-- Disabled -->
  <rect x="1226" y="532" width="96" height="36" rx="18" fill="#14112A"/>
  <text x="1274" y="554" font-family="-apple-system,sans-serif" font-size="11" font-weight="600" fill="rgba(245,240,232,0.2)" text-anchor="middle">Confirm</text>
  <text x="1274" y="580" font-family="-apple-system,sans-serif" font-size="9" fill="rgba(245,240,232,0.3)" text-anchor="middle">Disabled</text>

  <line x1="1010" y1="600" x2="1340" y2="600" stroke="#F5F0E8" stroke-width="0.5" opacity="0.06"/>

  <!-- Key quote -->
  <text x="1010" y="636" font-family="-apple-system,sans-serif" font-size="9" fill="#6C47FF" letter-spacing="0.18em">DESIGN PRINCIPLE</text>
  <text x="1010" y="666" font-family="-apple-system,sans-serif" font-size="17" font-weight="600" fill="#F5F0E8" opacity="0.85">"Every pixel earns its</text>
  <text x="1010" y="690" font-family="-apple-system,sans-serif" font-size="17" font-weight="600" fill="#F5F0E8" opacity="0.85">place. No noise."</text>
  <text x="1010" y="714" font-family="-apple-system,sans-serif" font-size="10" fill="rgba(245,240,232,0.3)">— Design Brief, Vault App</text>

  <!-- Footer -->
  <line x1="60" y1="848" x2="1340" y2="848" stroke="#F5F0E8" stroke-width="0.5" opacity="0.06"/>
  <text x="60" y="870" font-family="'SF Mono','Courier New',monospace" font-size="9.5" fill="rgba(245,240,232,0.2)" letter-spacing="0.1em">VAULT — MAIN DASHBOARD — ANNOTATED — ISAAC FIGUEROA / WAVE CREATIVE HOUSE — 2024</text>
  <text x="1340" y="870" font-family="'SF Mono','Courier New',monospace" font-size="9.5" fill="rgba(108,71,255,0.7)" text-anchor="end">02 / 03</text>
  <text x="1340" y="870" font-family="-apple-system,sans-serif" font-weight="900" font-size="180" fill="#F5F0E8" opacity="0.015" text-anchor="end">02</text>
</svg>
